<svg id="Layer_1" data-name="Layer 1" xmlns="http://www.w3.org/2000/svg" xmlns:xlink="http://www.w3.org/1999/xlink" viewBox="0 0 1197 2700.56"><defs><style>.cls-1{fill:none;}.cls-2{fill:#7887a0;}.cls-3{fill:#2f2e41;}.cls-4{fill:#f2f2f2;}.cls-5{fill:#becaff;}.cls-6{fill:#758bfd;}.cls-7{fill:#565661;}.cls-8{fill:#efeff0;}.cls-9{fill:url(#linear-gradient);}.cls-10{fill:#454b69;}.cls-11,.cls-12{opacity:0.1;}.cls-11,.cls-19{isolation:isolate;}.cls-13{fill:#4a4a60;}.cls-14{fill:#a1616a;}.cls-15{clip-path:url(#clip-path);}.cls-16{clip-path:url(#clip-path-2);}.cls-17{clip-path:url(#clip-path-3);}.cls-18{clip-path:url(#clip-path-4);}.cls-19{opacity:0.1;}</style><linearGradient id="linear-gradient" x1="410.46" y1="6570.52" x2="412.63" y2="6570.52" gradientTransform="matrix(1, 0, 0, -1, 417.4, 6998.13)" gradientUnits="userSpaceOnUse"><stop offset="0" stop-color="gray" stop-opacity="0.25"/><stop offset="0.54" stop-color="gray" stop-opacity="0.12"/><stop offset="1" stop-color="gray" stop-opacity="0.1"/></linearGradient><clipPath id="clip-path" transform="translate(-163 -111.28)"><rect class="cls-1" x="141" y="2139" width="259" height="259"/></clipPath><clipPath id="clip-path-2" transform="translate(-163 -111.28)"><rect class="cls-1" x="1252" y="2584" width="259" height="259"/></clipPath><clipPath id="clip-path-3" transform="translate(-163 -111.28)"><rect class="cls-1" x="751" y="936" width="259" height="259"/></clipPath><clipPath id="clip-path-4" transform="translate(-163 -111.28)"><rect id="SVGID" class="cls-1" x="454" y="24" width="259" height="259"/></clipPath></defs><title>Ilustracion larga join</title><polygon class="cls-2" points="1033.85 1748.49 1033.85 1903.1 1059.67 1945.24 1061.64 1948.45 1163.53 1948.45 1165.59 1748.49 1033.85 1748.49"/><polygon class="cls-2" points="787.04 1744.31 787.04 1898.91 761.21 1941.06 759.25 1944.27 657.35 1944.27 655.3 1744.31 787.04 1744.31"/><polygon class="cls-2" points="1197 1740.89 1197 1750.16 641.46 1750.16 641.46 1736.78 693.09 1710 1151.57 1710 1197 1740.89"/><polygon class="cls-3" points="721.84 1787.81 696.02 1787.81 685.27 1780.28 733.67 1780.28 721.84 1787.81"/><polygon class="cls-3" points="721.84 1817.93 696.02 1817.93 685.27 1810.4 733.67 1810.4 721.84 1817.93"/><polygon class="cls-3" points="721.84 1859.76 696.02 1859.76 685.27 1852.23 733.67 1852.23 721.84 1859.76"/><polygon class="cls-3" points="721.84 1902.43 696.02 1902.43 685.27 1894.9 733.67 1894.9 721.84 1902.43"/><polygon class="cls-3" points="1099.52 1791.99 1125.34 1791.99 1136.1 1784.46 1087.69 1784.46 1099.52 1791.99"/><polygon class="cls-3" points="1099.52 1822.12 1125.34 1822.12 1136.1 1814.59 1087.69 1814.59 1099.52 1822.12"/><polygon class="cls-3" points="1099.52 1863.95 1125.34 1863.95 1136.1 1856.42 1087.69 1856.42 1099.52 1863.95"/><polygon class="cls-3" points="1099.52 1906.62 1125.34 1906.62 1136.1 1899.09 1087.69 1899.09 1099.52 1906.62"/><path class="cls-3" d="M1280.17,1642.24H1071.7a7.89,7.89,0,0,0-7.88,7.9V1790.8a7.89,7.89,0,0,0,7.88,7.9h79.14l-3,19s-16.94,9-5,9.29,68,0,68,0,10.85,0-6.36-9.55l-2.78-18.69h78.43a7.89,7.89,0,0,0,7.88-7.9V1650.14A7.89,7.89,0,0,0,1280.17,1642.24Zm-104.52,3.56a1.32,1.32,0,1,1-1.32,1.32A1.32,1.32,0,0,1,1175.65,1645.8Zm0,147.2a5,5,0,1,1,5-5A5,5,0,0,1,1175.65,1793Zm104.87-25.26H1071.35V1650.61h209.17Zm-44.35-59.4h25.1v-5.86h-25.1Zm15.9,13.38h8.37v-5.85h-8.37Zm7.53-32.63h-8.37V1695h8.37Zm-75.3,32.63h59.4v-5.85h-59.4Zm57.73-32.63h-8.37V1695H1242Zm-22.59,45.18h8.37v-5.85h-8.37Zm-16.73-25.93h25.1v-5.86h-25.1Zm21.75-19.25h-59.4V1695h59.4Zm-22.59,45.18h8.37v-5.85h-8.37Zm-7.53-31.79h-59.4v5.86h59.4Zm-61.07,31.79h59.4v-5.85h-59.4Zm42.66-18.4h-25.09v5.85h25.09Zm-20.07-26.78h-25.1V1695h25.1Zm-13.39,26.78h-25.1v5.85h25.1Zm-16.73-13.39h-8.37v5.86h8.37Zm-.84,25.94h-25.1v5.85h25.1Zm-16.73-12.55h-8.37v5.85h8.37Zm0-13.39h-8.37v5.86h8.37Z" transform="translate(-163 -111.28)"/><rect class="cls-4" x="936.8" y="1591.2" width="8.37" height="5.86"/><rect class="cls-4" x="936.8" y="1604.58" width="8.37" height="5.86"/><rect class="cls-4" x="936.8" y="1617.13" width="25.1" height="5.86"/><rect class="cls-4" x="954.37" y="1591.2" width="8.37" height="5.86"/><rect class="cls-4" x="954.37" y="1604.58" width="25.1" height="5.86"/><rect class="cls-4" x="967.76" y="1577.81" width="25.1" height="5.86"/><rect class="cls-4" x="987.84" y="1604.58" width="25.1" height="5.86"/><rect class="cls-4" x="970.27" y="1617.13" width="59.4" height="5.86"/><rect class="cls-4" x="971.94" y="1591.2" width="59.4" height="5.86"/><rect class="cls-4" x="1038.87" y="1617.13" width="8.37" height="5.86"/><rect class="cls-4" x="1002.06" y="1577.81" width="59.4" height="5.86"/><rect class="cls-4" x="1039.71" y="1591.2" width="25.1" height="5.86"/><rect class="cls-4" x="1056.44" y="1617.13" width="8.37" height="5.86"/><rect class="cls-4" x="1070.66" y="1577.81" width="8.37" height="5.86"/><rect class="cls-4" x="1021.3" y="1604.58" width="59.4" height="5.86"/><rect class="cls-4" x="1088.23" y="1577.81" width="8.37" height="5.86"/><rect class="cls-4" x="1089.07" y="1604.58" width="8.37" height="5.86"/><rect class="cls-4" x="1073.17" y="1591.2" width="25.1" height="5.86"/><polygon class="cls-3" points="1004.57 1729.86 1004.57 1732.59 862.34 1732.59 862.34 1730.41 862.53 1729.86 866.04 1720.04 1001.66 1720.04 1004.57 1729.86"/><path class="cls-3" d="M1222.63,1838.59c-.26,1.11-1.24,2.28-3.46,3.39-7.94,4-24.09-1.06-24.09-1.06s-12.44-2.12-12.44-7.68a9.14,9.14,0,0,1,1.09-.64c3.34-1.77,14.41-6.13,34,.18a8.08,8.08,0,0,1,3.73,2.45A3.86,3.86,0,0,1,1222.63,1838.59Z" transform="translate(-163 -111.28)"/><path class="cls-5" d="M833.72,1604.37s2.89,24.08-7.7,26,9.63,34.67,9.63,34.67l48.15,5.78-11.55-38.53s-7.71-2.89-2.89-22.15S833.72,1604.37,833.72,1604.37Z" transform="translate(-163 -111.28)"/><polygon class="cls-5" points="641.41 1906.62 645.24 1959.33 665.36 1959.33 659.62 1906.62 641.41 1906.62"/><polygon class="cls-5" points="789.66 1806.58 792.55 1850.88 814.71 1841.25 806.04 1804.66 789.66 1806.58"/><path class="cls-3" d="M789.9,1815.49s1,55.86,6.74,74.16,4.82,19.26,3.85,22.15-1.92,1-1.92,5.78-1.93,80.9,0,87.64-5.78,18.3,0,19.26,32.74,0,33.71-5.78-7.71-7.7-3.86-11.55,9.64-82.83,9.64-82.83l13.48-54.9,25-28.89h53l16.37,63.56s-6.74,18.3-1.92,18.3,33.71,5.78,33.71-15.41-9.63-83.79-11.56-85.71,1-8.67-1.93-11.56-36.6-23.12-49.12-27S885,1774.3,885,1774.3Z" transform="translate(-163 -111.28)"/><path class="cls-3" d="M977.71,1944.83s-14.45-4.81-21.19,9.63-3.85,18.3-3.85,18.3,22.15,7.71,26,3.85c1.68-1.67,7-2.25,12.48-2.38,8.34-.18,10.56-12,2.68-14.74-.24-.08-.47-.15-.71-.21C985.41,1957.35,977.71,1944.83,977.71,1944.83Z" transform="translate(-163 -111.28)"/><ellipse class="cls-5" cx="689.04" cy="1470.19" rx="28.89" ry="31.26"/><path class="cls-6" d="M817.83,1642.42s47.19,9.63,58.75-5.78S893,1680,893,1680l5.78,61.64-8.67,33.7s-45.26,36.6-59.71,39.49-36.6,4.82-36.6,4.82,6.74-106.91,6.74-108.83S817.83,1642.42,817.83,1642.42Z" transform="translate(-163 -111.28)"/><path class="cls-3" d="M832.18,1624.35s-10.5-6-13.39-.23-29.85,20.22-32.74,20.22,5.78,79.94,1.92,89.57-22.15,79.94-11.55,85.72,2.89-5.78,13.48,8.67,62.6,14.44,65.49,8.66-23.11-49.12-18.3-89.57,12.52-96.31,5.78-104S832.18,1624.35,832.18,1624.35Z" transform="translate(-163 -111.28)"/><path class="cls-3" d="M867,1630.86l1.34-4.62s40.07,13.29,42,22,1,69.35-5.78,74.16-10.58,11.24-3.84,22.8,8.66,25.36,14.43,26.32,16.38,7.71,13.49,14.45-37.56-5.78-37.56-5.78-23.12-17.34-22.16-44.3S867,1630.86,867,1630.86Z" transform="translate(-163 -111.28)"/><path class="cls-5" d="M900.66,1744.51l-23.12,43.33s-33.71,34.68-14.44,38.53S893,1794.59,893,1794.59L918,1759Z" transform="translate(-163 -111.28)"/><path class="cls-3" d="M840.43,1556.9l-14.22,10c-6.14,11.22.86,21.63-.84,25.94l-2.51-1.68c-2.51-3.34-4-9-4.18-9.2-2.7-4-.39-10.81-2.51-15.06-.84-1.41-2.18-9.28-2.51-10.88-.61-4.84,7.29-12.43,10.88-15.06,4.93-3.66,4.64-.21,7.68-5.54a10.76,10.76,0,0,1,2.81-3.71,7.06,7.06,0,0,1,4.15-.92c16.73,0,34.19,2.1,47.48,15a16.69,16.69,0,0,1,3.07,3.73c2.34,4.17,1.73,9.67.35,14.37s-3.48,9.19-3.92,14.13c0,1.21,1.5,2.83,1.13,4-1.21,2.94-5.55,10.14-8.37,10-.13,1,1.67-6.69.84-8.37a31.16,31.16,0,0,0-2.51-10l-5.86-12.55c-.84-2.51-3.7-3.47-4.35-3.66C852.54,1553,841.8,1556.19,840.43,1556.9Z" transform="translate(-163 -111.28)"/><path class="cls-3" d="M900.66,1644.34l9,2.38s20.88,53.48,16.07,90.08-7.71,28.89-7.71,28.89-7.7-17.33-25-13.48Z" transform="translate(-163 -111.28)"/><path class="cls-3" d="M805.68,2064c-2.32,3.15-1.86,7.67-3.91,11-1.79,2.89-5.15,4.41-7.38,7a18.43,18.43,0,0,0-1.89,2.73c-2.07,3.46-3.75,7.9-1.72,11.39,1.64,2.8,5.09,3.9,8.25,4.64,4,.95,8.14,1.7,12.18,1s8-3.19,9.43-7a29.06,29.06,0,0,1,1-2.84c2.19-4.31,9.06-4.36,11.3-8.64,1.57-3,.13-6.63-1.31-9.69l-4.41-9.35c-1.46-3.1-7.38-1.32-10.46-2.06C812.74,2061.12,808.58,2060.05,805.68,2064Z" transform="translate(-163 -111.28)"/><path class="cls-5" d="M773.53,1763.77l40.45,62.6s25,31.78,32.74,17.34-27-38.53-27-38.53l-26-48.15Z" transform="translate(-163 -111.28)"/><path class="cls-3" d="M793.75,1646.27l-7.7-1.93s-15.41,4.82-19.26,25-1,101.13,3.85,102.09,23.78-14.08,26.82-10.89-6.6-13.19-3.71-21.85S793.75,1646.27,793.75,1646.27Z" transform="translate(-163 -111.28)"/><g id="f3c2397c-d780-4cc6-97d8-1503d8277a2c"><rect class="cls-6" x="967.76" y="1577.81" width="25.1" height="5.86"/><rect class="cls-6" x="1070.66" y="1577.81" width="8.37" height="5.86"/><rect class="cls-6" x="1088.23" y="1577.81" width="8.37" height="5.86"/><rect class="cls-6" x="1002.06" y="1577.81" width="59.4" height="5.86"/><rect class="cls-6" x="936.8" y="1617.13" width="25.1" height="5.86"/><rect class="cls-6" x="1038.87" y="1617.13" width="8.37" height="5.86"/><rect class="cls-6" x="1056.44" y="1617.13" width="8.37" height="5.86"/><rect class="cls-6" x="970.27" y="1617.13" width="59.4" height="5.86"/><rect class="cls-6" x="1039.71" y="1591.2" width="25.1" height="5.86"/><rect class="cls-6" x="1073.17" y="1591.2" width="25.1" height="5.86"/><rect class="cls-6" x="936.8" y="1591.2" width="8.37" height="5.86"/><rect class="cls-6" x="954.37" y="1591.2" width="8.37" height="5.86"/><rect class="cls-6" x="971.94" y="1591.2" width="59.4" height="5.86"/><rect class="cls-6" x="987.84" y="1604.58" width="25.1" height="5.86"/><rect class="cls-6" x="954.37" y="1604.58" width="25.1" height="5.86"/><rect class="cls-6" x="936.8" y="1604.58" width="8.37" height="5.86"/><rect class="cls-6" x="1089.07" y="1604.58" width="8.37" height="5.86"/><rect class="cls-6" x="1021.3" y="1604.58" width="59.4" height="5.86"/></g><rect class="cls-3" y="1012.72" width="599.33" height="335.52"/><polygon class="cls-6" points="97.11 1063.07 97.11 1067.91 102.58 1067.91 102.58 1077.59 97.11 1077.59 97.11 1082.43 111.7 1082.43 111.7 1063.07 97.11 1063.07"/><rect class="cls-6" x="55.15" y="1221.16" width="20.07" height="3.23"/><rect class="cls-6" x="55.15" y="1095.33" width="14.59" height="19.36"/><polygon class="cls-6" points="55.15 1063.07 55.15 1067.91 60.63 1067.91 60.63 1077.59 55.15 1077.59 55.15 1082.43 69.75 1082.43 69.75 1063.07 55.15 1063.07"/><rect class="cls-6" x="55.15" y="1159.86" width="14.59" height="19.36"/><rect class="cls-6" x="55.15" y="1245.36" width="14.59" height="19.36"/><polygon class="cls-6" points="55.15 1127.6 55.15 1132.43 60.63 1132.43 60.63 1142.11 55.15 1142.11 55.15 1146.95 69.75 1146.95 69.75 1127.6 55.15 1127.6"/><polygon class="cls-6" points="55.15 1279.24 55.15 1284.08 60.63 1284.08 60.63 1293.76 55.15 1293.76 55.15 1298.6 69.75 1298.6 69.75 1279.24 55.15 1279.24"/><rect class="cls-6" x="122.65" y="1221.16" width="20.07" height="3.23"/><rect class="cls-6" x="122.65" y="1095.33" width="14.59" height="19.36"/><polygon class="cls-6" points="122.65 1063.07 122.65 1067.91 128.12 1067.91 128.12 1077.59 122.65 1077.59 122.65 1082.43 137.24 1082.43 137.24 1063.07 122.65 1063.07"/><rect class="cls-6" x="122.65" y="1159.86" width="14.59" height="19.36"/><rect class="cls-6" x="122.65" y="1245.36" width="14.59" height="19.36"/><polygon class="cls-6" points="122.65 1127.6 122.65 1132.43 128.12 1132.43 128.12 1142.11 122.65 1142.11 122.65 1146.95 137.24 1146.95 137.24 1127.6 122.65 1127.6"/><polygon class="cls-6" points="122.65 1279.24 122.65 1284.08 128.12 1284.08 128.12 1293.76 122.65 1293.76 122.65 1298.6 137.24 1298.6 137.24 1279.24 122.65 1279.24"/><rect class="cls-6" x="153.66" y="1192.12" width="20.07" height="3.23"/><rect class="cls-6" x="153.66" y="1219.55" width="20.07" height="3.23"/><polygon class="cls-6" points="159.13 1055 159.13 1059.84 164.6 1059.84 164.6 1069.52 159.13 1069.52 159.13 1074.36 173.72 1074.36 173.72 1055 159.13 1055"/><polygon class="cls-6" points="159.13 1117.92 159.13 1122.76 164.6 1122.76 164.6 1132.43 159.13 1132.43 159.13 1137.28 173.72 1137.28 173.72 1117.92 159.13 1117.92"/><polygon class="cls-6" points="159.13 1245.36 159.13 1250.2 164.6 1250.2 164.6 1259.88 159.13 1259.88 159.13 1264.72 173.72 1264.72 173.72 1245.36 159.13 1245.36"/><rect class="cls-6" x="204.74" y="1093.72" width="14.59" height="19.36"/><rect class="cls-6" x="204.74" y="1158.25" width="14.59" height="19.36"/><rect class="cls-6" x="204.74" y="1190.51" width="14.59" height="19.36"/><rect class="cls-6" x="275.88" y="1161.47" width="20.07" height="3.23"/><rect class="cls-6" x="252.17" y="1221.16" width="20.07" height="3.23"/><rect class="cls-6" x="252.17" y="1095.33" width="14.59" height="19.36"/><rect class="cls-6" x="277.7" y="1090.49" width="14.59" height="19.36"/><polygon class="cls-6" points="252.16 1063.07 252.16 1067.91 257.64 1067.91 257.64 1077.59 252.16 1077.59 252.16 1082.43 266.76 1082.43 266.76 1063.07 252.16 1063.07"/><polygon class="cls-6" points="305.07 1063.07 305.07 1067.91 312.36 1067.91 312.36 1077.59 305.07 1077.59 305.07 1082.43 319.66 1082.43 319.66 1063.07 305.07 1063.07"/><polygon class="cls-6" points="449.18 1063.07 449.18 1067.91 454.65 1067.91 454.65 1077.59 449.18 1077.59 449.18 1082.43 463.77 1082.43 463.77 1063.07 449.18 1063.07"/><rect class="cls-6" x="252.17" y="1159.86" width="14.59" height="19.36"/><rect class="cls-6" x="277.7" y="1122.76" width="14.59" height="19.36"/><rect class="cls-6" x="252.17" y="1245.36" width="14.59" height="19.36"/><rect class="cls-6" x="277.7" y="1185.67" width="14.59" height="19.36"/><polygon class="cls-6" points="252.16 1127.6 252.16 1132.43 257.64 1132.43 257.64 1142.11 252.16 1142.11 252.16 1146.95 266.76 1146.95 266.76 1127.6 252.16 1127.6"/><polygon class="cls-6" points="252.16 1279.24 252.16 1284.08 257.64 1284.08 257.64 1293.76 252.16 1293.76 252.16 1298.6 266.76 1298.6 266.76 1279.24 252.16 1279.24"/><rect class="cls-6" x="407.22" y="1221.16" width="20.07" height="3.23"/><rect class="cls-6" x="407.22" y="1095.33" width="14.59" height="19.36"/><polygon class="cls-6" points="407.22 1063.07 407.22 1067.91 412.69 1067.91 412.69 1077.59 407.22 1077.59 407.22 1082.43 421.81 1082.43 421.81 1063.07 407.22 1063.07"/><rect class="cls-6" x="407.22" y="1159.86" width="14.59" height="19.36"/><rect class="cls-6" x="407.22" y="1245.36" width="14.59" height="19.36"/><polygon class="cls-6" points="407.22 1127.6 407.22 1132.43 412.69 1132.43 412.69 1142.11 407.22 1142.11 407.22 1146.95 421.81 1146.95 421.81 1127.6 407.22 1127.6"/><polygon class="cls-6" points="407.22 1279.24 407.22 1284.08 412.69 1284.08 412.69 1293.76 407.22 1293.76 407.22 1298.6 421.81 1298.6 421.81 1279.24 407.22 1279.24"/><rect class="cls-6" x="474.72" y="1221.16" width="20.07" height="3.23"/><rect class="cls-6" x="474.72" y="1095.33" width="14.59" height="19.36"/><polygon class="cls-6" points="474.72 1063.07 474.72 1067.91 480.19 1067.91 480.19 1077.59 474.72 1077.59 474.72 1082.43 489.31 1082.43 489.31 1063.07 474.72 1063.07"/><rect class="cls-6" x="474.72" y="1159.86" width="14.59" height="19.36"/><rect class="cls-6" x="474.72" y="1245.36" width="14.59" height="19.36"/><polygon class="cls-6" points="474.72 1127.6 474.72 1132.43 480.19 1132.43 480.19 1142.11 474.72 1142.11 474.72 1146.95 489.31 1146.95 489.31 1127.6 474.72 1127.6"/><polygon class="cls-6" points="474.72 1279.24 474.72 1284.08 480.19 1284.08 480.19 1293.76 474.72 1293.76 474.72 1298.6 489.31 1298.6 489.31 1279.24 474.72 1279.24"/><polygon class="cls-6" points="277.7 1245.36 277.7 1250.2 283.18 1250.2 283.18 1259.88 277.7 1259.88 277.7 1264.72 292.3 1264.72 292.3 1245.36 277.7 1245.36"/><polygon class="cls-6" points="277.7 1277.62 277.7 1282.46 283.18 1282.46 283.18 1292.14 277.7 1292.14 277.7 1296.98 292.3 1296.98 292.3 1277.62 277.7 1277.62"/><polygon class="cls-6" points="204.74 1059.84 204.74 1064.68 210.21 1064.68 210.21 1074.36 204.74 1074.36 204.74 1079.2 219.33 1079.2 219.33 1059.84 204.74 1059.84"/><polygon class="cls-6" points="204.74 1125.98 204.74 1130.82 210.21 1130.82 210.21 1140.5 204.74 1140.5 204.74 1145.34 219.33 1145.34 219.33 1125.98 204.74 1125.98"/><polygon class="cls-6" points="204.74 1217.93 204.74 1222.77 210.21 1222.77 210.21 1232.45 204.74 1232.45 204.74 1237.29 219.33 1237.29 219.33 1217.93 204.74 1217.93"/><polygon class="cls-6" points="204.74 1245.36 204.74 1250.2 210.21 1250.2 210.21 1259.88 204.74 1259.88 204.74 1264.72 219.33 1264.72 219.33 1245.36 204.74 1245.36"/><rect class="cls-6" x="505.73" y="1192.12" width="20.07" height="3.23"/><rect class="cls-6" x="505.73" y="1219.55" width="20.07" height="3.23"/><polygon class="cls-6" points="511.2 1055 511.2 1059.84 516.67 1059.84 516.67 1069.52 511.2 1069.52 511.2 1074.36 525.79 1074.36 525.79 1055 511.2 1055"/><polygon class="cls-6" points="511.2 1117.92 511.2 1122.76 516.67 1122.76 516.67 1132.43 511.2 1132.43 511.2 1137.28 525.79 1137.28 525.79 1117.92 511.2 1117.92"/><polygon class="cls-6" points="511.2 1245.36 511.2 1250.2 516.67 1250.2 516.67 1259.88 511.2 1259.88 511.2 1264.72 525.79 1264.72 525.79 1245.36 511.2 1245.36"/><path class="cls-3" d="M575.36,1780.66c0,6.44-22.06,11-22.06,11s-33.09-.92-34.93-.92-19.3,2.76-28.5,0c-7.9-2.37,1.19-19.69,3.88-24.5l-4.43.6,3.68-41.36V1648.3l-23-38.61s-8.27,28.49-10.11,38.61-25.74,36.76-25.74,36.76-46,21.15-51.48,22.07-8.27,17.46-8.27,23.9-15.63,0-17.46,2.75c-1.32,2-13.44,6.77-20.25,9.33.44,9.4,1.18,23.61,1.82,26.61,1,4.59,6.47,17.24.56,19.8-2.58,1.12-6.52-1.78-10.13-5.39a53.81,53.81,0,0,1-11.8-18.06c-3.69-9.21-9.5-23.68-10-24.82-.73-1.69-10.2-16.62-11.32-26.16-.87-7.33,14.66-6.94,21.86-6.37l-.27-.68,76.29-50.55,3.68-9.19s0,.91,4.6,0,6.43-6.44,6.43-6.44,2.76-13.79,8.27-13.79,7.36-9.19,6.44-14.7,0-23.9,0-23.9l-6.44-29.42v-47.8l80.9,12s27.57,75.38,32.17,82.73,3.68,34,5.51,37.69-3.67,28.49,0,34-1.83,49.64-5.51,53.31,0,29.42,0,29.42l-4.35.6c6,2.29,27.6,10.56,31.56,11.35C561.57,1774.23,575.36,1774.23,575.36,1780.66Z" transform="translate(-163 -111.28)"/><path class="cls-5" d="M470.11,1547.64l7.35,15.63S494,1557.75,494,1555s-7.35-14.71-7.35-14.71Z" transform="translate(-163 -111.28)"/><path class="cls-2" d="M504,1407.46s-1.84,44.12,1.84,49.64,2.76,29.41.92,34.93,1.84,23.9,1.84,23.9,0,5.51-3.68,9.19-1.84,9.19-1.84,10.11c0,.2-4.59.31-11.72.37,1.72,5.09,3.08,8.82,3.08,8.82l-24.82,11s-4-7.93-10.21-19.87c-24.09-.1-49.17-.35-49.17-.35v-14.71l-3.68-15.62c-10.11-164,34-170.06,34-170.06l3.68-2.76c3.68-2.75,2.76-2.75,0-10.11s12-9.19,12-9.19-.92-9.19-1.84-22.06,14.71-26.66,14.71-26.66c7.35-13.79,32.17,0,32.17,0,16.55,0,25.28,22.52,25.28,22.52,6.44-.92,9.19,5.52,9.19,5.52l-29.41,68,.46,13.33,5.51,18.38Z" transform="translate(-163 -111.28)"/><rect class="cls-7" x="920.4" y="228.08" width="105.12" height="45.05"/><rect class="cls-7" x="920.4" y="277.82" width="105.12" height="95.73"/><polygon class="cls-8" points="639.16 506.83 648.22 506.83 645.73 218.69 631.98 218.69 639.16 506.83"/><polygon class="cls-2" points="630.38 226.2 1034.91 231.69 1034.91 246.85 630.38 241.63 630.38 226.2"/><path class="cls-9" d="M830,428.52l-1.88-.28V428c-.05-.44-.12-.88-.19-1.32.77.61,1.51,1.22,2.18,1.83Z" transform="translate(-163 -111.28)"/><path class="cls-3" d="M789.45,573.2c1.22-.28,2.46-.52,3.69-.69a44.57,44.57,0,0,1,25,3.68c-.79,5.8-1.57,11.8.1,17.4,1.17,3.95,3.5,7.51,4,11.62a6.86,6.86,0,0,1,5.4,4.77,10.28,10.28,0,0,1,.53,3.34,17.71,17.71,0,0,1-.52,4.17,4.2,4.2,0,0,1-4.51,3.75c-7.26.83-14.39-2-21.14-4.84l-13.14-5.46c-1.54-.64-3.09-1.29-4.57-2.07-2.79-1.51-2.94-1.45-5-3.89-.43-.44-3.07-3.07-3.21-3.67-.24-1.65,1.69-2.64,2.92-3.75a6.47,6.47,0,0,0,.94-1.15c1.45-2.2,1.59-5.23,2.47-7.82,2.06-6.15,8.44-10.11,10.7-16.1.12-.33.23-.66.32-1" transform="translate(-163 -111.28)"/><path class="cls-10" d="M812.78,479.94a4.36,4.36,0,0,1-1.6,4.7c-1.23.76-2.81.65-4,1.48-1.51,1.06-1.73,3.16-2,5-.94,6.26-4,11.94-6.7,17.69s-4.9,12-3.93,18.29c.67,4.24,2.75,8.76.8,12.58-.48.94-1.19,1.78-1.74,2.69-2.67,4.47-1.15,10.13-1.25,15.33a3,3,0,0,1-.37,1.66,4.46,4.46,0,0,1-1.48,1.14,7.86,7.86,0,0,0-3.2,6,23,23,0,0,0,.84,7,4.17,4.17,0,0,0,1.16,2.44,4.32,4.32,0,0,0,2.52.71A56.32,56.32,0,0,1,809,580.84c3.56,1.48,7,3.34,10.79,4a2.82,2.82,0,0,0,2.22-.23,3.14,3.14,0,0,0,.94-1.62c1.45-4.79,2.93-9.73,2.43-14.7-.22-2.14-.79-4.24-.94-6.38-.66-8.44,5.06-16.06,6.87-24.4.82-3.75.82-7.64,1.4-11.43,1.57-10.39,7.3-19.71,9.51-30a32.24,32.24,0,0,1,1.42-5.63c1.64-4,5.45-7.21,5.53-11.52a4.55,4.55,0,0,0-.71-2.68,6.13,6.13,0,0,0-3.35-1.88,114,114,0,0,0-15.54-3.13,29.76,29.76,0,0,0-7.3-.51,21.47,21.47,0,0,0-8.93,3.16C809.66,476.18,812,476.71,812.78,479.94Z" transform="translate(-163 -111.28)"/><path class="cls-2" d="M812.78,479.94a4.36,4.36,0,0,1-1.6,4.7c-1.23.76-2.81.65-4,1.48-1.51,1.06-1.73,3.16-2,5-.94,6.26-4,11.94-6.7,17.69s-4.9,12-3.93,18.29c.67,4.24,2.75,8.76.8,12.58-.48.94-1.19,1.78-1.74,2.69-2.67,4.47-1.15,10.13-1.25,15.33a3,3,0,0,1-.37,1.66,4.46,4.46,0,0,1-1.48,1.14,7.86,7.86,0,0,0-3.2,6,23,23,0,0,0,.84,7,4.17,4.17,0,0,0,1.16,2.44,4.32,4.32,0,0,0,2.52.71A56.32,56.32,0,0,1,809,580.84c3.56,1.48,7,3.34,10.79,4a2.82,2.82,0,0,0,2.22-.23,3.14,3.14,0,0,0,.94-1.62c1.45-4.79,2.93-9.73,2.43-14.7-.22-2.14-.79-4.24-.94-6.38-.66-8.44,5.06-16.06,6.87-24.4.82-3.75.82-7.64,1.4-11.43,1.57-10.39,7.3-19.71,9.51-30a32.24,32.24,0,0,1,1.42-5.63c1.64-4,5.45-7.21,5.53-11.52a4.55,4.55,0,0,0-.71-2.68,6.13,6.13,0,0,0-3.35-1.88,114,114,0,0,0-15.54-3.13,29.76,29.76,0,0,0-7.3-.51,21.47,21.47,0,0,0-8.93,3.16C809.66,476.18,812,476.71,812.78,479.94Z" transform="translate(-163 -111.28)"/><polygon class="cls-7" points="631.41 509.65 623.4 509.65 618.17 402.05 617.8 395.93 624.61 393.54 625.07 400.04 631.41 509.65"/><path class="cls-3" d="M728.9,372.46c-2.82,8.92-10.5,17-19.86,17.35a3.48,3.48,0,0,1-2-.35c-1.18-.74-1.2-2.45-.72-3.76s1.31-2.48,1.44-3.85a2.32,2.32,0,0,0-.06-.83c-.24-1.12-1.15-2.11-2.22-1.88a3.76,3.76,0,0,0,.8-5,11.42,11.42,0,0,1-1.15-1.54c-.78-1.6.43-3.39.94-5.1,1-3.75-1.6-7.51-1.82-11.42-.19-3.5,1.59-6.8,2-10.27.7-5.63-2.1-11-2.42-16.65-.23-3.92.74-7.81,1.82-11.59.94-3.38,2-6.8,2.06-10.33,0-2.56-.44-5.09-.56-7.65a13.26,13.26,0,0,1,1.23-6.79,5.41,5.41,0,0,1,3.09-2.64c3.07-1,5.09.57,5.54,3.49.75,5,.32,10,1.31,15a70.18,70.18,0,0,0,4.12,13.6c1.66,4,3.68,7.79,5,11.89a66,66,0,0,1,2.06,10.33C730.76,353.88,731.74,363.53,728.9,372.46Z" transform="translate(-163 -111.28)"/><path class="cls-3" d="M892.62,601.68a11.32,11.32,0,0,1,.2-4.14c0-3.92.94-10.49,3.7-13.56,3.39-3.82,9.26-8.76,14.38-9.78a11.28,11.28,0,0,1,9.74,2.77c2.42,2.25,4.19,5.78,7.51,6.17,1.81.23,3.56-.62,5.35-.93a9.94,9.94,0,0,1,10.14,5.36,10,10,0,0,1,.94,2.93,12.21,12.21,0,0,1-1.91,8.76,14.58,14.58,0,0,1-10.26,6c-4.07.51-8.31-.51-12.26.6a3.75,3.75,0,0,0-2.81,2.17,22.26,22.26,0,0,0-.18,2.3c-.46,2.51-3.76,3.07-6.32,3l-10.57-.06c-2.19,0-4.62-.12-6.2-1.65" transform="translate(-163 -111.28)"/><path class="cls-2" d="M914.93,584.79c-3.75,2.91-8.16,5.18-12.89,5.43s-9.75-1.88-12.07-6c-3.38-6-.38-14.43-4.53-20-1.29-1.73-3.16-3-4.53-4.64s-2.16-4.21-.94-6c-1.47.56-3-.86-3.46-2.38s-.16-3.16-.43-4.7c-.68-4.08-4.69-6.7-6.61-10.32s-1.67-8.33-1.88-12.62a47.83,47.83,0,0,0-11.08-28.48c-1.27-1.52-2.91-3.07-4.9-3,.35-3.43-1.94-6.72-4.9-8.44s-6.5-2.31-9.93-2.65c-34.67-3.42-70.78,9.47-103.88-1.37-9.2-3-18.08-8.05-23.71-16a27.82,27.82,0,0,1-5-21.09v-.14c1.31-6.66,4.83-8.3,10.65-11.34a128.19,128.19,0,0,1,21-8.82c14.08-4.4,29.23-6,43.76-2.76,6.79,1.52,13.33,4,20.13,5.51,2.67.59,5.37,1,8.08,1.35,4.21.52,8.45.87,12.69,1.36a191.71,191.71,0,0,1,39.85,9c4.81,1.63,9.63,3.5,13.77,6.46a30.53,30.53,0,0,1,12.24,20.14c.39,2.76.4,5.63,1,8.31a42.8,42.8,0,0,0,2.25,6.57,436,436,0,0,1,19.61,61,14.89,14.89,0,0,0,1.57,4.41c1.2,2,3.26,3.25,4.48,5.19,2.81,4.58.1,11,2.6,15.74.86,1.66,2.29,3,3.16,4.61C923.89,574.59,919.74,581.06,914.93,584.79Z" transform="translate(-163 -111.28)"/><path class="cls-3" d="M826.24,428.52c-6.57,20.65-25.27,7.82-27.12,6.31a40.73,40.73,0,0,0-30.4-8.88c-3.06.37-6.12,1.09-9.18.8-6.18-.57-11.19-5-16.7-7.85A35.11,35.11,0,0,0,704,424.16c-1.31,1.22-3.08,2.65-4.69,1.88a3.86,3.86,0,0,1-1.46-1.59c-6.14-10.5-1.62-24,5-34.27s15.27-19.67,18-31.52a11.77,11.77,0,0,0,.35-4.38,38.79,38.79,0,0,0-1.58-4.86c-.82-2.89-.44-5.95-.2-8.94a82.69,82.69,0,0,0-6.4-38.58c-1.51-3.5-3.29-7-3.29-10.84,0-6,4.29-11,7.84-15.77,4.08-5.54,7.51-11.67,12.68-16.22,4.9-4.33,12-7,18.06-4.78a112.78,112.78,0,0,1,31.5-3.07c3.66.17,7.44.56,10.65,2.33,3.43,1.88,5.9,5.22,9.28,7.22,2.47,1.47,5.31,2.17,8,3.2a33,33,0,0,1,17.23,15.41c3.75,7.27,4.69,15.64,5.52,23.78.79,7.67,1.54,15.64-1.13,22.86l-.13.33c-2.1,5.46-6,10.07-8.45,15.38-3.12,6.73-3.89,14.27-4.59,21.67-.6,6.34-1.19,12.71-.71,19.06,1.2,15.66,8.85,30.51,10.9,45.86Z" transform="translate(-163 -111.28)"/><path class="cls-3" d="M825.67,309.27c1.4,4,3.29,7.79,4.05,11.92,1.27,6.92-.69,14.27,1.44,21a39.1,39.1,0,0,1,1.39,4.38c.36,2.13-.06,4.31-.06,6.48,0,3.49,1.1,6.87,2.07,10.22a183,183,0,0,1,6.53,34.88,43.16,43.16,0,0,0,1.49,9.38,31.75,31.75,0,0,1,1,3.18,16.6,16.6,0,0,1,.18,4.34c-.25,4.6-.77,9.22-.25,13.8s2.18,9.22,5.63,12.29c-3.08.67-6.34,1.34-9.34.35-4.22-1.38-6.76-5.63-8.91-9.5-2.72-4.93-13.06-9.38-14.13-14.93-.84-4.35-3.54-10-4-14.46s2.63-9.77-.61-12.8c-1.57-1.47,2.63-1.07,1.08-2.57-3.46-3.37-4.31-8.56-4.53-13.38-.36-8.51.71-17.13-.85-25.51-.94-5.17-2.9-10.1-4.47-15.13-1.82-5.84-3.13-11.83-4.45-17.83a125.58,125.58,0,0,1-2.81-16.2c-.41-4.7-.23-9.68,1.88-14s6.33-7.74,11.07-7.69C824.91,277.78,822.18,299.32,825.67,309.27Z" transform="translate(-163 -111.28)"/><path class="cls-11" d="M780.42,312.94c1.48,1.74,3.39,3.64,5.63,3.31a1.22,1.22,0,0,1-1.66.39,3.56,3.56,0,0,1-1.25-1.44l-3.21-5.41c-.42-.7-3.33-4.81-4-2.44C775.6,308.35,779.69,312.1,780.42,312.94Z" transform="translate(-163 -111.28)"/><path class="cls-11" d="M778.69,326.45a7.15,7.15,0,0,0-2.09-4.69,11.68,11.68,0,0,0-3.88-2.34A28,28,0,0,0,761.21,317c1.39,2,5.85,3.24,8.08,4.38Q774,323.83,778.69,326.45Z" transform="translate(-163 -111.28)"/><path class="cls-5" d="M794.87,180.59c8.07,3.51,15,11.26,14.76,20-.21,9.22-7.93,17.9-5.27,26.73,1.54,5.13,6.18,8.56,9.85,12.46,14,14.79,13.94,40.61-.08,55.37-5.37,5.64-12.27,9.64-18,15-20,18.87-20.87,51.5-10.15,76.83a124.93,124.93,0,0,1-25,2.82c-3.93,0-8.74-.67-10.17-4.34-1.31-3.39.94-8-1.65-10.47-1.22-1.17-3.05-1.33-4.69-1.61-10.57-1.7-19.24-10.14-23.21-20.08s-3.75-21.13-1.48-31.58c1.62-7.56,4.14-15.88.4-22.63-4.7-8.51-18.19-12.09-18-21.82.17-8,9.57-11.84,14.9-17.76,9.83-10.91,5.15-27.83,5.13-42.53,0-12.93,4.53-26.28,14.16-34.9C750.76,169.21,778.34,173.4,794.87,180.59Z" transform="translate(-163 -111.28)"/><g class="cls-12"><path d="M805.44,215.32c1.69-4.93,4.14-9.9,4.26-15a13.21,13.21,0,0,0-.05-1.66C807.77,204.29,804.88,209.77,805.44,215.32Z" transform="translate(-163 -111.28)"/><path d="M723.39,241.57c3.23-10.2.44-22.85.43-34.17,0-1.37.06-2.75.16-4.12a54.38,54.38,0,0,0-1.67,13.38C722.33,224.74,723.75,233.51,723.39,241.57Z" transform="translate(-163 -111.28)"/></g><path class="cls-2" d="M864.43,438.25s-26.64-10.46-36.27-9.38,10.91,16.25,10.91,16.25l12.27,8.28s7.51-2.82,8-3S864.43,438.25,864.43,438.25Z" transform="translate(-163 -111.28)"/><path class="cls-3" d="M1050.42,581.72a18.17,18.17,0,0,1-1.13,4.3,7.59,7.59,0,0,1-3.43,4.28,9.09,9.09,0,0,1-3.46.69c-4.42.26-9.09.19-12.9-2.06a23.61,23.61,0,0,1-4.42-3.69,202.49,202.49,0,0,1-23.2-27.59c-1.15-1.66-2.34-3.63-1.83-5.63a87.67,87.67,0,0,0,25.13-11.5,12,12,0,0,1,3.53-1.88,19.13,19.13,0,0,1,6.62-.24c2.13.34,2.23.41,3,2.81,1.36,4.07,1.13,8.45,2.65,12.51a38.77,38.77,0,0,0,3.51,6.42C1048.45,566.7,1051.47,574.45,1050.42,581.72Z" transform="translate(-163 -111.28)"/><path class="cls-2" d="M1056.48,481.49a28.11,28.11,0,0,1-2.35,4.48,191.83,191.83,0,0,0-20,46.82c-1.29-.29-2,1.48-2,2.82s0,3-1.23,3.52c-.37.14-.78.14-1.14.3-.79.36-1,1.36-1.13,2.22l-1.1,8.13c-.39,2.82-.73,5.87.65,8.36a13.54,13.54,0,0,0,3.64,3.75l18.32,14.45c.75.59,1.68,1.22,2.58.9,2-.76.23-4.43,1.87-5.93,1.09-1,2.82-.25,4.33-.37,2-.15,3.46-2,4-3.87a18.35,18.35,0,0,0,.11-5.87,5.16,5.16,0,0,1,.3-2.64,6.4,6.4,0,0,1,2.24-2.15,24.08,24.08,0,0,0,9.86-20.31,11.45,11.45,0,0,1,.13-3.6,9.59,9.59,0,0,1,1.7-3c6.66-9,12.21-18.77,17.71-28.53,3.18-5.63,6.41-11.34,7.51-17.69a1.63,1.63,0,0,0-1.35-2.25,63.61,63.61,0,0,0-8.39-2c-8.62-1.75-17-4.44-25.34-7S1059,474.71,1056.48,481.49Z" transform="translate(-163 -111.28)"/><path class="cls-3" d="M1249.62,651.9h-12l-56.38-140.33-31.58-.8L1154.86,681h-13.2l-5.58-164.23-5.57-1.63v.07l-5.25,107.6h-8l6.35-109.61v-.06l-16.34-4.77-16.39,1.2L1030.12,647.5l-13.2-1.58,60.46-154.31.28-.71,4.77-2.67c-20.81-4.86-43.61-9.49-43.61-9.49,6.4-6.4,92.45-22.42,92.45-22.42l36,8a43.68,43.68,0,0,1-2.5,16.45l23.28.8,2.27,6.32Z" transform="translate(-163 -111.28)"/><path class="cls-3" d="M1033.65,593c-2.16,4.13-7.51,5.3-12.2,5.36a51.55,51.55,0,0,1-19.07-3.4c-3.47-1.34-6.8-3.05-10.39-4-5.34-1.46-11.26-1.34-16-4.28a18.85,18.85,0,0,1-6-6.5c-.28-.46-.54-.94-.78-1.43-2.25-4.37-3.29-9.44-2-14.15s5.78-9.91,11-9.83c6.24.09,13.68,3,19.71,4.58,7.51,1.88,15,4,21.65,8,5.56,3.35,10.47,8.14,13.09,14a24.1,24.1,0,0,1,1.23,3.49C1034.76,587.51,1035,590.53,1033.65,593Z" transform="translate(-163 -111.28)"/><path class="cls-2" d="M1074,414.53c-12.2-2-24.62-2.48-37-3l-15.13-.6a6.8,6.8,0,0,0-3.19.38,20.47,20.47,0,0,0-2.48,1.88c-1.52,1-3.47,1.14-5.3,1.25a263.11,263.11,0,0,0-38.63,5c-6.57,1.34-13.39,3.1-18.33,7.63-5.22,4.8-7.51,12.11-7.69,19.19s1.68,14,3.65,20.82a95.38,95.38,0,0,1,4.1,25.21,46.93,46.93,0,0,0,.27,7.11,34.3,34.3,0,0,0,2,6.57l6.91,18.44c.61,1.61,1.21,3.22,1.87,4.8s1.31,2.81,1.88,4.29c.85,2,1.51,4.13,2.18,6.23l4.6,14.44.6,1.88c1.66,5.2,3.36,10.49,6.49,15s8,8.07,13.44,8.34a44.28,44.28,0,0,1,5.28.14,22.43,22.43,0,0,1,4.33,1.57,33.1,33.1,0,0,0,12.92,2.53c4.08,0,8.62-1.14,10.83-4.57,1.22-1.88,1.54-4.19,1.88-6.4.59-4.45,1.16-9.1-.35-13.32-.94-2.53-2.51-4.7-3.6-7.18-1.52-3.39-2-7.14-3-10.71A40.87,40.87,0,0,0,1010,521.59a196.47,196.47,0,0,1-4.69-25.7,22.52,22.52,0,0,0-1.14-5.63c-1.1-2.82-3.32-5.1-4.25-8-.87-2.67-.61-5.74-2.2-8,13.21,3.63,26.28,2.81,40,2.6a108.88,108.88,0,0,0,13.14-.76,41,41,0,0,1,6.15-.65c4.25,0,8.23,1.87,12.12,3.53,11,4.69,22.61,8.38,34.57,8.89,12.34.51,24.54-2.39,36.6-5.26,5.31-1.27,10.81-2.64,15-6.12s6.57-9.76,4-14.54c-2-3.59-6-5.36-9.87-6.86-10.54-4.17-21.15-8.23-31.32-13.27C1102.6,434.24,1091,417.35,1074,414.53Z" transform="translate(-163 -111.28)"/><path class="cls-13" d="M1052.23,372.07c-1.48,3.19-4,5.8-5.78,8.81a22.24,22.24,0,0,0-2.82,16.56,18.85,18.85,0,0,0,10.56,12.85,26.38,26.38,0,0,0,7.32,1.77c3.3.4,6.82.48,9.74-1.11a14.17,14.17,0,0,0,5.19-5.43c2.53-4.22,4-9,5.28-13.72,2.43-8.75,4.5-17.72,4.2-26.79-.1-3.13-.72-6.65-3.31-8.45a11.22,11.22,0,0,0-4.36-1.43l-12.38-2.21c-2.39-.44-6.57-2.19-8.64-.46s-2.23,6.83-2.59,9.22C1054.08,365.22,1053.73,368.82,1052.23,372.07Z" transform="translate(-163 -111.28)"/><path class="cls-14" d="M1202.71,335.77l-3.24,27.14a125.23,125.23,0,0,0-1.15,14.61c0,2.72.08,5.74-1.72,7.78a7.11,7.11,0,0,1-3.23,1.94c-3.93,1.22-8.22.13-12-1.55-2.19-.94-4.44-2.3-5.43-4.49a11,11,0,0,1-.7-4.75c0-16.19,1.53-33.08,10-46.88a10.23,10.23,0,0,1,3-3.43c2.34-1.5,5.41-1.08,8.07-.26,1.63.49,6,1.05,7.09,2.5S1202.93,333.9,1202.71,335.77Z" transform="translate(-163 -111.28)"/><ellipse class="cls-13" cx="953.8" cy="89.45" rx="33.79" ry="36.88"/><path class="cls-13" d="M1107.76,254.18a17.37,17.37,0,0,1-2.09,7.51q25.88-3.94,51.62-8.79a24.24,24.24,0,0,1-12-14.08,39.55,39.55,0,0,1-1.53-10,117.66,117.66,0,0,1,.31-16.15c-6,.63-11.69,2.88-17.42,4.81a168.91,168.91,0,0,1-17.54,4.91c-2.86.64-5.74,1.18-8.63,1.69-3.38.6-5,.59-2.66,3.56C1104.15,235.53,1108.65,243.58,1107.76,254.18Z" transform="translate(-163 -111.28)"/><path class="cls-5" d="M1118.14,249.66c-4.45.67-9.13,1.42-12.69,4.18a46.49,46.49,0,0,0-3.85,3.71c-7.07,6.86-17,9.62-25.63,14.46a11.28,11.28,0,0,0-3.64,2.86c-.94,1.31-1.42,3-2.4,4.27-1.15,1.5-3,2.44-3.85,4.1s-.69,3.42-.79,5.19c-.21,3.87-1.68,7.55-2.81,11.26-5.21,17.75-2.36,37.54-10.24,54.31a7.61,7.61,0,0,0,4.15,4.33,23.55,23.55,0,0,0,6.15,1.33l17.47,2.16c2.5.31,5.14.6,7.42-.44a87.64,87.64,0,0,0-4.4,17.77,87.4,87.4,0,0,1-2,11c-2.4,8.26-8.45,15.14-15.61,19.84a5.75,5.75,0,0,0-2.2,2c-.94,1.87.45,4,1.43,5.82,2.87,5.33,2.47,11.73,2.43,17.77s.58,12.68,4.8,17c2.5,2.56,5.91,3.95,9.24,5.27l27.32,10.92a94.78,94.78,0,0,0,13.91,4.69c7.2,1.65,14.68,1.58,22.06,1.26q7.32-.31,14.63-.94a11.37,11.37,0,0,0,5.52-1.45,10.26,10.26,0,0,0,3.24-4.4c3.8-8.26,5.08-17.91,11-24.84,4-4.76,10.33-8.56,10.79-14.78.21-3.1-1.17-6.11-1.18-9.22,0-3.82,2-7.45,1.87-11.26-.25-6.21-6.1-10.94-7-17.07-2.36-15.57,5.54-31.11,10.39-46.08.88-2.67,2-5.63,4.57-6.78s6.2-.54,7.12-3.07c2.32-6.37,2.87-13.83,2.57-20.6-.17-3.91-1.56-7.74-1.4-11.66.11-2.76,1-5.45,1.23-8.2.36-4.15-.74-8.28-1.88-12.3a19.13,19.13,0,0,0-1.46-4.15,19.52,19.52,0,0,0-2.44-3.35l-4.57-5.43c-2.14-2.55-4.4-5.19-7.51-6.47-1-2.49-4.21-4.21-6.51-5.58a69,69,0,0,0-7.17-3.52l-25.85-11.41a10.41,10.41,0,0,0-3.07-1,9.93,9.93,0,0,0-4.56.93C1134.82,245.29,1126.59,248.41,1118.14,249.66Z" transform="translate(-163 -111.28)"/><path class="cls-3" d="M1084.27,206.12a9.32,9.32,0,0,1-.86-2.3c-1.25-3-3.1-5.91-3.44-9.28-.38-3.69,1.16-7.25,2-10.85a14.42,14.42,0,0,0,.23-6.69,7.46,7.46,0,0,0-1.32-2.87c-.58-.73-1.81-1.23-1.93-2.24a3.42,3.42,0,0,1,.4-1.76,6.47,6.47,0,0,0,.64-1.7c.3-2-1.7-3.93-1.12-5.87a3.77,3.77,0,0,1,2.82-2.21c4.27-1.19,8.94-4.18,9.93-9.11,3.41,1.51,7-1.32,9.66-4.06s5.83-5.87,9.43-5l-.8,1.73c.3-.66,3.45-1.06,4.13-1.19a24.17,24.17,0,0,1,4.49-.46,32.9,32.9,0,0,1,8.61,1.45h-1.4A25.4,25.4,0,0,1,1139,148.5c-.36-.28.16,2,.32,2.24a9.51,9.51,0,0,0,2.2,2.44,15.35,15.35,0,0,0,5.85,2.68c2.13.53,4.44.92,6,2.53s1.58,5-.47,5.76a52.59,52.59,0,0,1,11.81,6.77c1,.78,2.17,1.85,2,3.23a11.61,11.61,0,0,1-.63,2c-.6,1.42.19,4,.63,5.45a32.86,32.86,0,0,1,1.61,6.37,23.36,23.36,0,0,1-2.25,12.82,12.54,12.54,0,0,1,1.19,8.22,53.51,53.51,0,0,1-2.3,8.14,36.27,36.27,0,0,1-2.18,6,8.77,8.77,0,0,1-4.31,4.31c-.13.05.29,2.36.25,2.64a4.76,4.76,0,0,1-1.16,2.43,4.71,4.71,0,0,1-4.34,2,48.28,48.28,0,0,0-12.42.32c-1.82.31-3.51,1.18-5.36,1.19a17.82,17.82,0,0,1-6-1.38q-6.07-2.19-12.09-4.56a35,35,0,0,1-7.71-3.85,13.38,13.38,0,0,1-5.22-6.92c-.86-3-.38-6.16-.22-9.27s-.15-6.51-2.16-8.77a6.38,6.38,0,0,0-9.35.11c-1,1.16-1.59,2.66-2.62,3.78s-2.44,1.25-3.95,1.15c-.42,0-1.47.12-1.78-.1Z" transform="translate(-163 -111.28)"/><path class="cls-3" d="M1238.55,342.26c-14.43,31.62-5.63,119.26-5.63,119.26,2.81,11.55-7.83,15.76-14.36,17.25-5.13,1.16-10.2,2.5-15.21,4.12l-61.65,19.86a14.66,14.66,0,0,0,3.17-1.76,11.32,11.32,0,0,0-3.2,1.77c-7.62,6.28-25.61,0-25.61,0s-55.66-17.64-70.07-20.84-7.2-3.2-7.2-3.2c7.62-5.2,83.64,18.4,83.64,18.4,41.65,19.24,30.85-67.2,30.85-67.2s4.4-84.84,30.81-99.25c16.81-9.18,31-7.81,39.15-5.61C1235.61,324.73,1244.9,328.32,1238.55,342.26Z" transform="translate(-163 -111.28)"/><path class="cls-5" d="M978.28,335.33v2.15H914.46v-1.73a21.79,21.79,0,0,0,4.93-2.62A20.83,20.83,0,0,0,927.5,311c-.07-.25-.13-.49-.21-.73a20.94,20.94,0,0,0-11.38-13.14h24a5.8,5.8,0,0,0-.14,1.32,6.19,6.19,0,0,0,12.37,0,6.43,6.43,0,0,0-.14-1.32h25.86a20.89,20.89,0,0,0-11.38,13.14c-.08.24-.14.48-.21.73a20.89,20.89,0,0,0,12,24.34Z" transform="translate(-163 -111.28)"/><path class="cls-5" d="M842.19,285.86v12.21c0,6.73,4.86,12.19,10.87,12.19h186.62c6,0,10.87-5.46,10.87-12.19V285.86Zm103.75,18.76a6.18,6.18,0,0,1-6.18-6.18,5.8,5.8,0,0,1,.14-1.32,6.19,6.19,0,0,1,12.09,0,6.43,6.43,0,0,1,.14,1.32A6.19,6.19,0,0,1,945.94,304.62Z" transform="translate(-163 -111.28)"/><path class="cls-5" d="M896.59,333.73h99A3.23,3.23,0,0,1,998.8,337h0a3.23,3.23,0,0,1-3.18,3.29h-99a3.24,3.24,0,0,1-3.18-3.29h0A3.24,3.24,0,0,1,896.59,333.73Z" transform="translate(-163 -111.28)"/><path class="cls-3" d="M1039.69,143.2H853.06a10.87,10.87,0,0,0-10.87,10.87V288.68h208.36V154.07A10.86,10.86,0,0,0,1039.69,143.2Zm-93.75,2.5a2.51,2.51,0,1,1-2.51,2.51A2.51,2.51,0,0,1,945.94,145.7Z" transform="translate(-163 -111.28)"/><path class="cls-3" d="M1044.92,158.86V274a5.33,5.33,0,0,1-5.34,5.34H853.17a5.34,5.34,0,0,1-5.35-5.34h0V158.86a5.22,5.22,0,0,1,.72-2.67,5.35,5.35,0,0,1,4.63-2.67h186.42a5.34,5.34,0,0,1,5.33,5.34Z" transform="translate(-163 -111.28)"/><path class="cls-3" d="M894.75,644l-13.19,1.59L820.78,507.69l-16.39-1.2-28.78,8.4L770,679.12H756.82L762,508.89l-31.59.8L674.05,650h-12l59.29-164,.26-.73L708.31,481c-5-1.62-10.08-3-15.2-4.12-6.53-1.48-17.18-5.7-14.36-17.24,0,0,8.8-87.65-5.63-119.27-6.36-13.94,2.93-17.53,15.3-17.19,8.11-2.21,22.34-3.58,39.15,5.6,26.41,14.42,30.82,99.26,30.82,99.26a200.23,200.23,0,0,0-1,31.51l29.18,10.63s79,.09,86.19,6.57l.14.08s7.21,0-7.2,3.2c-5.88,1.32-18.65,5-31.69,9h0l.28.72Z" transform="translate(-163 -111.28)"/><polygon class="cls-5" points="943.37 2264.39 955.28 2286.89 973.14 2284.39 971.65 2255.64 941.88 2264.39 943.37 2264.39"/><polygon class="cls-13" points="178.66 2231.88 167.92 2266.89 197.08 2263.14 201.68 2226.88 178.66 2231.88"/><polygon class="cls-6" points="670.73 2411.5 748.16 2334.3 670.73 2257.1 694.34 2233.57 795.38 2334.3 694.34 2435.03 670.73 2411.5 670.73 2411.5"/><path class="cls-6" d="M612.25,2450.69h31.26v-31.26H612.25ZM771,2419.43H739.78v31.26H771Zm-95,31.26h31.25v-31.26H676Z" transform="translate(-163 -111.28)"/><polygon class="cls-6" points="406.94 2410.72 329.42 2333.51 406.86 2256.31 383.25 2232.78 282.28 2333.51 383.33 2434.24 406.94 2410.72"/><polygon class="cls-13" points="101.63 2669.93 119.26 2674.19 144.07 2608.25 118.07 2601.96 101.63 2669.93"/><polygon class="cls-13" points="179.18 2682 197.33 2682 205.97 2611.98 179.18 2611.98 179.18 2682"/><path class="cls-3" d="M338.39,2769l3-108.79-4-44.11-7.84,34L295.29,2761.7l-29.51-7.76L300,2633.57l-7.42-77.21,21.33-13.71.29,0L387,2556.13l-17.6,209.79Z" transform="translate(-163 -111.28)"/><path class="cls-2" d="M367.23,2571.28c-5.87,0-12.73-1.89-20.37-7.28-24.45-17.26-53.59,1.3-53.89,1.49l-1.18.77,0-1.41c0-1,3-100.92,3-133.07,0-33.21,21.67-57.46,28.31-64.11s12-6.37,18.95-6.19c1.2,0,2.44.06,3.76.06,9.07,0,17.89,8.72,18.26,9.09l.18.18,0,.25,25.18,189.59-.19.24C389.15,2561,380.89,2571.28,367.23,2571.28Z" transform="translate(-163 -111.28)"/><circle class="cls-13" cx="186.66" cy="2202.75" r="36.32"/><path class="cls-13" d="M417.16,2608c-5.13-4.36-15-23.3-11-28.93a13.28,13.28,0,0,1,1.41-1.66l-16.31-42.18,21.36,4.31,12.21,39.39c4.05,5.62,12.08,24.6,7,29a11,11,0,0,1-14.64,0Z" transform="translate(-163 -111.28)"/><path class="cls-2" d="M418.67,2549.77l6.64,14-25.77,10.15-37.27-76-16.34-57.22V2391c0-.2.75-22.9,15-21.56,12.91,1.25,23,10.93,26.38,24.48,2.88,11.5-1.06,45.65-1.44,48.87" transform="translate(-163 -111.28)"/><path class="cls-3" d="M345,2327.71c4.35.57,7.63-3.89,9.16-8s2.68-8.91,6.47-11.14c5.17-3,11.79.62,17.7-.39,6.68-1.13,11-8.21,11.36-15s-2.35-13.27-5-19.51l-.93,7.75a15.37,15.37,0,0,0-6.71-13.44l1.19,11.38a12.08,12.08,0,0,0-13.84-10h-.05l.18,6.78c-7.71-.92-15.49-1.84-23.23-1.14s-15.53,3.15-21.39,8.24c-8.77,7.62-12,20.17-10.9,31.74s5.85,22.44,10.83,32.94c1.25,2.64,3,5.63,5.89,6,2.61.3,5-1.88,5.81-4.38a15.92,15.92,0,0,0-.07-7.79c-.74-3.9-1.66-7.89-1-11.79s3.5-7.77,7.44-8.25,8,4,6.08,7.51Z" transform="translate(-163 -111.28)"/><path class="cls-5" d="M1160.75,2600.45c-3.81-4.28-4.92-25.66-1.34-30a9.85,9.85,0,0,1,1.24-1.26l-10.1-37.64,16.79,6.08,7,34.81c2.84,5.22-.69,25.21-5.1,28.39-3.69,2.67-5.33,3.23-8.51-.4Z" transform="translate(-163 -111.28)"/><path class="cls-3" d="M1152.78,2558.94l-.12-.43c-11.69-43.22-23.77-87.91-38.52-136.56l-.09-.32.32-.19c8.22-4.79,20.58-4.47,28.74.75a21.44,21.44,0,0,1,9.31,22.74l10.76,56.09c4.37,18.33,8.9,37.31,13.22,56l.12.53-.66,0c-7.88.5-16,1-22.54,1.31Z" transform="translate(-163 -111.28)"/><polygon class="cls-5" points="890.62 2679.5 875.38 2679.5 868.13 2620.74 890.62 2620.74 890.62 2679.5"/><polygon class="cls-5" points="1034.9 2667.66 1020.3 2672.31 995.39 2618.19 1016.95 2611.32 1034.9 2667.66"/><circle class="cls-5" cx="957.32" cy="2240.35" r="30.71"/><path class="cls-3" d="M1134.1,2345.94c.18-12.39-5-24.65-13-30.82a20.81,20.81,0,0,0-26.42.47c-7.89,6.44-12.83,18.89-12.42,31.27C1099.92,2346.91,1117.61,2347,1134.1,2345.94Z" transform="translate(-163 -111.28)"/><path class="cls-2" d="M1059.71,2771.15l-.62-.06c-13.33-1.31-27.12-2.66-40.15-2.81h-.71l.09-.7c3.09-22.37,4.4-45.61,5.67-68.1,1.25-22.2,2.54-45.16,5.55-67,1.27-5.84,2.51-11.61,3.75-17.35,10.23-47.57,19.9-92.5,39.86-137l.19-.42.45.05c18.73,2.27,36.72,9.1,50.66,19.24l.27.19v.34c-.27,6.9-.55,14-.14,20.55a69.77,69.77,0,0,1,10,61.62c5.49,18.35,11.16,37.32,17,56,14.07,38.56,28.62,78.46,43.54,118.91l.25.66-.69.16c-10.74,2.52-21.81,5.12-32.73,6.13l-.41,0-.2-.37a891.2,891.2,0,0,1-67.63-162.61c-3.73,11.36-9.1,21.63-14.3,31.57a236.26,236.26,0,0,0-13.11,28c-2.3,18.9-2.91,39.39-3.5,59.2-.56,18.72-1.08,36.41-2.91,53.05Z" transform="translate(-163 -111.28)"/><path class="cls-3" d="M1109.83,2315.69c13.31-2.87,28-.14,38.49,8.84s15.76,24.52,11.47,37.84-18.88,22.7-32.06,19.26c3.78-10.64-.47-23.71-9.7-29.84C1107.08,2344.52,1104.06,2327.16,1109.83,2315.69Z" transform="translate(-163 -111.28)"/><path class="cls-3" d="M1126.32,2499.79l-.48-.22c-17-7.75-33.64-13.69-49.24-19.12l-.48-.1V2479l.31.11c.07-.14.14-.31.22-.47.21-.47.35-.79.48-1h0c1.31-2.65,2.34-5.21,3.34-7.69s2.1-5.19,3.47-8a24.22,24.22,0,0,1-5.35-26.05c3.45-8.16,12.24-14.53,21.47-15.58,3.38-9.31,10.92-28.88,10.92-28.88s15.85-.44,22.23-1.25h.11l.1,0c13.92,3,25.54,16.22,28.26,32,2.29,13.34-1.19,28.6-9.81,43a186.08,186.08,0,0,1-14.65,20.11c-3.88,4.86-7.55,9.44-10.59,14.06Z" transform="translate(-163 -111.28)"/><path class="cls-3" d="M1156.11,2336.61" transform="translate(-163 -111.28)"/><path class="cls-3" d="M1156.73,2333.88c-9.32-1.39-16.63-10.91-15.57-20.27s10.31-17,19.71-16.29,17.36,9.71,17,19.12S1168.63,2335.66,1156.73,2333.88Z" transform="translate(-163 -111.28)"/><path class="cls-3" d="M1155.28,2327.81c-9.32-1.39-16.64-10.91-15.58-20.27a19,19,0,0,1,11.11-14.67c-7.52,1.64-14,8.19-14.86,15.92-1.06,9.36,6.26,18.88,15.58,20.28a17.84,17.84,0,0,0,10.21-1.43A18.22,18.22,0,0,1,1155.28,2327.81Z" transform="translate(-163 -111.28)"/><path class="cls-5" d="M972.5,2488.84c2.87-4.58,18.89-5.27,24-2.7a11.7,11.7,0,0,1,1.55,1l32.26-17.64-.66,17.55-30.54,14.06c-4,3.85-20.35,3.09-24.66-.52a8.83,8.83,0,0,1-2-11.7Z" transform="translate(-163 -111.28)"/><path class="cls-3" d="M1005.86,2479.15l.37-.25c36.86-25.42,75-51.7,115.92-81.81l.27-.2.29.24c7.26,6.16,11.08,17.91,8.88,27.35a21.46,21.46,0,0,1-18.35,16.35l-49.3,28.83c-15.83,10.23-32.21,20.82-48.41,31.14l-.46.29-.27-.62c-3.09-7.26-6.29-14.76-8.73-20.81Z" transform="translate(-163 -111.28)"/><path class="cls-3" d="M1038.61,2788.28s11.26,3.75,16.26-1.25,3.75,3.75,3.75,3.75v8.76s.07,6.81-7.5,7.5c-13.76,1.25-39.15,2.37-46.27,0-7.5-2.5-1.25-12.51,8.76-12.51s20-3.75,21.25-6.25S1038.61,2788.28,1038.61,2788.28Z" transform="translate(-163 -111.28)"/><path class="cls-3" d="M1169.64,2793.39l9.45-8.86c8.1-1.47,17.55-5.9,18.9-7.38s4-1.47,5.4,4.43,5.4,13.28,2.7,13.28-20.25,7.38-25.65,8.86-24.29,10.32-24.29-1.48C1156.15,2797.81,1169.64,2793.39,1169.64,2793.39Z" transform="translate(-163 -111.28)"/><path class="cls-3" d="M360.93,2792s-11.25,3.75-16.25-1.25-3.75,3.75-3.75,3.75v8.76s-1.25,7.5,7.5,7.5c13.81,0,39.14,2.37,46.26,0,7.5-2.5,1.25-12.5-8.75-12.5s-20-3.76-21.26-6.26S360.93,2792,360.93,2792Z" transform="translate(-163 -111.28)"/><path class="cls-3" d="M293.67,2792.14l-9.45-8.86c-8.1-1.47-17.55-5.9-18.9-7.38s-4.05-1.47-5.4,4.43-5.22,12.32-2.7,13.28,20.25,7.38,25.65,8.86,24.3,10.32,24.3-1.48C307.17,2796.56,293.67,2792.14,293.67,2792.14Z" transform="translate(-163 -111.28)"/><g class="cls-15"><path class="cls-6" d="M198.21,2227.43a15.81,15.81,0,0,0-9.67,17.51,15.84,15.84,0,1,0-8.78,28.91c.06.15.1.31.16.47a15.83,15.83,0,1,0,22.59,17.94,14.75,14.75,0,0,0,.61,1.92A15.85,15.85,0,1,0,227.83,2276a15.83,15.83,0,1,0-6.72-30.49,16.55,16.55,0,0,0-1.74.86,15.65,15.65,0,0,0-.54-10.17,15.85,15.85,0,0,0-20.62-8.77Zm1,27.38a14,14,0,1,1-7.78,18.22,14,14,0,0,1,7.78-18.22" transform="translate(-163 -111.28)"/><polygon class="cls-6" points="38.91 2154 41.5 2147.81 44.09 2154 50.28 2156.58 44.09 2159.16 41.5 2165.35 38.91 2159.16 32.72 2156.58 38.91 2154"/></g><g class="cls-16"><path class="cls-6" d="M1309.21,2672.43a15.81,15.81,0,0,0-9.67,17.51,15.84,15.84,0,1,0-8.78,28.91c.06.15.1.31.16.47a15.83,15.83,0,1,0,22.59,17.94,14.75,14.75,0,0,0,.61,1.92,15.85,15.85,0,1,0,24.71-18.18,15.83,15.83,0,1,0-6.72-30.49,16.55,16.55,0,0,0-1.74.86,15.65,15.65,0,0,0-.54-10.17,15.85,15.85,0,0,0-20.62-8.77Zm1,27.38a14,14,0,1,1-7.78,18.22,14,14,0,0,1,7.78-18.22" transform="translate(-163 -111.28)"/><polygon class="cls-6" points="1149.91 2599 1152.5 2592.81 1155.09 2599 1161.28 2601.58 1155.09 2604.16 1152.5 2610.35 1149.91 2604.16 1143.72 2601.58 1149.91 2599"/></g><g class="cls-17"><path class="cls-6" d="M808.21,1024.43a15.81,15.81,0,0,0-9.67,17.51,15.84,15.84,0,1,0-8.78,28.91c.06.15.1.31.16.47a15.83,15.83,0,1,0,22.59,17.94,14.75,14.75,0,0,0,.61,1.92A15.85,15.85,0,1,0,837.83,1073a15.83,15.83,0,1,0-6.72-30.49,16.55,16.55,0,0,0-1.74.86,15.65,15.65,0,0,0-.54-10.17,15.85,15.85,0,0,0-20.62-8.77Zm1,27.38a14,14,0,1,1-7.78,18.22,14,14,0,0,1,7.78-18.22" transform="translate(-163 -111.28)"/><polygon class="cls-6" points="648.91 951 651.5 944.81 654.09 951 660.28 953.58 654.09 956.16 651.5 962.35 648.91 956.16 642.72 953.58 648.91 951"/></g><g class="cls-18"><path class="cls-6" d="M511.21,112.43a15.81,15.81,0,0,0-9.67,17.51,15.84,15.84,0,1,0-8.78,28.91c.06.15.1.31.16.47a15.83,15.83,0,1,0,22.59,17.94,14.75,14.75,0,0,0,.61,1.92A15.85,15.85,0,1,0,540.83,161a15.83,15.83,0,1,0-6.72-30.49,16.55,16.55,0,0,0-1.74.86,15.65,15.65,0,0,0-.54-10.17,15.85,15.85,0,0,0-20.62-8.77Zm1,27.38A14,14,0,1,1,504.45,158a14,14,0,0,1,7.78-18.22" transform="translate(-163 -111.28)"/><polygon class="cls-6" points="351.91 39 354.5 32.81 357.09 39 363.28 41.58 357.09 44.16 354.5 50.35 351.91 44.16 345.72 41.58 351.91 39"/></g><polygon class="cls-6" points="407.37 1376.45 414.33 1394.12 432 1401.09 414.33 1408.05 407.37 1425.72 400.4 1408.05 382.74 1401.09 400.4 1394.12 407.37 1376.45"/><polygon class="cls-6" points="874.37 739.45 881.34 757.12 899 764.09 881.34 771.05 874.37 788.72 867.4 771.05 849.74 764.09 867.4 757.12 874.37 739.45"/><polygon class="cls-6" points="808.37 2156.45 815.34 2174.12 833 2181.09 815.34 2188.05 808.37 2205.72 801.4 2188.05 783.74 2181.09 801.4 2174.12 808.37 2156.45"/><polygon class="cls-6" points="1074.37 9.45 1081.34 27.12 1099 34.09 1081.34 41.05 1074.37 58.72 1067.4 41.05 1049.73 34.09 1067.4 27.12 1074.37 9.45"/><rect class="cls-2" x="979.81" y="739.9" width="73.95" height="64.16"/><rect class="cls-19" x="980.89" y="751.86" width="73.95" height="64.16"/><path class="cls-5" d="M1239.5,1058.85l10.38,75.32s-24.89,60.66,2.14,53.9,13.19-46.31,13.19-46.31l-10-82.08Z" transform="translate(-163 -111.28)"/><path class="cls-3" d="M1231.92,946.78c.33-2,4.78-19.78,4.78-19.78l9.72.83a59.48,59.48,0,0,1,4.49,7.58,84.51,84.51,0,0,1,9.19,35.76c.66,25.71,4.45,38.4,0,41.21s-8.57,3.29-4.61,4.94,11.53,3,6.75,6.92-8.24,1.65-4.45,6.59,8.9.66,5.11,6.93-6.1,13.84-5.6,14.67,7.58,13.18-1.16,12.85c-2.08-.08-4.16-.18-6.14-.28-6.31-.33-11.52-.71-12.15-.71-.82,0-7.09-77.63-7.09-77.63S1231.59,948.76,1231.92,946.78Z" transform="translate(-163 -111.28)"/><path class="cls-5" d="M1163.35,864.87a113.65,113.65,0,0,0,5.77,19.61c4,9.72-15.16,11.21-15.16,11.21l-1.48,20.1,39.88,7.75,23.41-12.2s-2.64-11.7-8.9-15.49-1.49-44.66-1.49-44.66Z" transform="translate(-163 -111.28)"/><path class="cls-19" d="M1163.35,864.87a113.65,113.65,0,0,0,5.77,19.61c4,9.72-15.16,11.21-15.16,11.21l-1.48,20.1,39.88,7.75,23.41-12.2s-2.64-11.7-8.9-15.49-1.49-44.66-1.49-44.66Z" transform="translate(-163 -111.28)"/><path class="cls-5" d="M1186.26,1215.1l41.54,7.42s-11.87,58.34-7.09,74c3.49,11.44-9.13,67.28-16.18,96.49-2.59,10.75-4.42,17.89-4.42,17.89l-1.49,29.83-19.77,2.31,2.1-54.59,0-1.12-1.76-37q-.37-7.86,0-15.73c.77-16.45,2.23-54.69-.38-62.82C1175.27,1260.71,1186.26,1215.1,1186.26,1215.1Z" transform="translate(-163 -111.28)"/><path class="cls-5" d="M1084.9,1438.52a32.78,32.78,0,0,0,9.4-20.93c.34-5.46.65-14.22.9-22.62.35-11.89.58-23,.58-23s1.81-76.64,1.48-89.33,5-72.36,10.55-77.3,49.61,3.3,49.61,3.3-20.27,70.21-20.93,74,0,61.48-5.77,78.78c-2.38,7.15-5.13,20.16-7.54,33-3.42,18.18-6.14,35.93-6.14,35.93s-1.32,17.31-2.47,17.64-22.09,8.4-22.09,8.4l-11.53-6.59Z" transform="translate(-163 -111.28)"/><path class="cls-3" d="M1101.22,1449.9l18-22.91s1.65,17.47,3.13,20.93,3.34,33.31,3.34,33.31a68.63,68.63,0,0,1-27.19-1.08c-6.1,4.64-26.25,2-41.91-2.56s15.5-28.85,20.28-35.27,7.25-9.07,7.25-9.07c26.53-1.15,15.16,13.84,15.16,13.84Z" transform="translate(-163 -111.28)"/><circle class="cls-5" cx="1014.53" cy="730.18" r="33.79"/><path class="cls-3" d="M1103.53,1041.22s-4.12,49.11,1.31,72.52-1.81,106.14-3.46,108.45,18.3,11.2,50.27,9.72,87.35,1.65,94.61-3.13-5.28-22.42.82-75.82.82-86.2-3.3-90-6.09-32.14-6.09-32.14l5.6-51.09,3.13-51.92s-6.1-6.42-12.53-13.67-27-18.3-27-18.3c.16,9.56-6.6,12.86-6.6,12.86-19.78,4.45-34.44-10.88-34.44-10.88s-6.27-4.62-8.57-5.77-33.63,11.7-33.63,11.7Z" transform="translate(-163 -111.28)"/><path class="cls-5" d="M1109.29,1053.25l15.83,72.52s9.39,53.56,19.77,53.56,8.25-48.45,2.31-54.55-14.5-73-14.5-73Z" transform="translate(-163 -111.28)"/><path class="cls-3" d="M1208.06,1449l3.63,13.19s2.3,4.45,1.64,14.17-33.29,3.63-38.07,0,0-35.93,0-35.93c11.37-14.5,32.8,0,32.8,0Z" transform="translate(-163 -111.28)"/><path class="cls-3" d="M1144.24,988.64c2.8,3.63-.66,5.94-4.62,10.06s-.82,6.09,5.11,10.38.16,2.47-4.12,6.59-1.81,4.12,1.32,7.09,1.65,5.77-.83,7.25-4.12,10.22-4.12,10.22,6.43,21.75-1.15,17.3-27.69,2.15-27.69,2.15-4.94-14.51-6.92-16.32-2-10.22-1-14.34-1-5.77-3.79-7.74-2-8.08.82-13.19-2.14-4.12-8.24-7.25,2.64-26.37,6.59-48.79,28-48.29,28-48.29l5.61,1C1143.08,901.12,1141.43,985,1144.24,988.64Z" transform="translate(-163 -111.28)"/><path class="cls-2" d="M1181.89,795.17a67.62,67.62,0,0,0-28.74,9.38,21.62,21.62,0,0,0-5.19,4.13c-3.08,3.6-3.93,8.56-6.18,12.72s-5.88,7.5-8.27,11.61a23.58,23.58,0,0,0-1.33,20.72c1.94,4.56,5.36,8.64,5.79,13.57.26,2.91-.58,5.79-1.27,8.63-1.3,5.34-1.8,11.77,2.19,15.55,2.23,2.11,5.41,2.88,8,4.58a25.32,25.32,0,0,1,6.08,6.56l4.83,6.62c2.48-4.25,5-8.91,4.45-13.79-.25-2.05-1-4-1.25-6.06-.39-4.18,1.74-8.16,2.25-12.32.67-5.56-1.56-11-3.25-16.35s-2.78-11.44,0-16.33a3.57,3.57,0,0,1-.77,2.85,57,57,0,0,0,15.77-9.89l.07,2.19,11.08-3.49c2.92-.92,6-1.91,8.09-4.11l3.21,8.16a16.59,16.59,0,0,1,4.67-1.76,13.33,13.33,0,0,1,.88,4.5l2.79.31c.35,3.9-.84,7.75-2,11.49-2.26,7.19-4.53,14.39-7.3,21.4A58.48,58.48,0,0,0,1193,886a27.61,27.61,0,0,0,.93,13.94,31,31,0,0,0,5.22,9.65,23.28,23.28,0,0,0,2.15-5.95,8.16,8.16,0,0,0,8.64,5.58,65.25,65.25,0,0,1,.26-8.73l7.85,1.64a8.63,8.63,0,0,1,1-7.08,33.22,33.22,0,0,1,3.24-3.67c5.39-6.07,9.85-15.63,9.51-23.74-.19-4.43-.7-9.24-3.77-12.44-1.42-1.49-3.4-2.64-4-4.6-.72-2.22.54-4.52,1.34-6.7,2.81-7.65-3.84-15.45-6.51-23.14a46.47,46.47,0,0,0-2.84-6.93,35.94,35.94,0,0,0-9-10.06C1199.67,797.63,1191.54,794.16,1181.89,795.17Z" transform="translate(-163 -111.28)"/><path class="cls-3" d="M221.4,287h-6.3l-26.76,97.08s-.53,64.54,5.77,96c0,0,10.5-13.64,17.84-13.64s14.17-68.74,14.17-68.74S255,299.59,221.4,287Z" transform="translate(-163 -111.28)"/><path class="cls-5" d="M359.93,472.21s-16.79,47.23-1.05,50.38,24.14-36.73,19.94-42S359.93,472.21,359.93,472.21Z" transform="translate(-163 -111.28)"/><path class="cls-5" d="M192.4,462.46s4.72,49.9,20.32,46.1,6.37-43.48.35-46.47S192.4,462.46,192.4,462.46Z" transform="translate(-163 -111.28)"/><path class="cls-5" d="M232.94,754.52s7.35,35.69-5.25,45.13,4.2,29.39,4.2,29.39l39.88-42S255,760.82,256,745.08Z" transform="translate(-163 -111.28)"/><polygon class="cls-5" points="132.91 675.77 128.71 704.11 127.66 724.05 150.75 721.95 153.9 681.02 132.91 675.77"/><path class="cls-5" d="M207.05,467.46s-12.94,4.75-11.89,18.4,4.2,56.67,4.2,56.67-9.45,92.35,0,123.84,27.28,94.45,27.28,94.45,27.29,5.25,33.59-14.69c0,0-1.05-68.22-12.6-82.91s-3.14-18.89-2.09-21,4.19-5.25,4.19-8.4,1.05-14.69,1.05-18.89-1.05-3.15,1.05-9.44,4.2-8.4,4.2-9.45,17.84-56.67,17.84-56.67L297,668.47s-5.25,127-3.15,127,25.19,8.4,33.58,0c0,0,21-109.14,16.8-115.44s-5.25-7.35-4.2-13.64,3.15-9.45,1.05-12.6-5.25-13.64-2.1-16.79,4.2-17.84,4.2-17.84S361,516.29,349.43,501.6,207.05,467.46,207.05,467.46Z" transform="translate(-163 -111.28)"/><path class="cls-3" d="M242.39,800.7s-12.6-15.74-16.79-8.4-10.5,18.89-10.5,18.89-47.23,40.93-21,42,43-17.84,43-17.84,4.2-21,16.79-21l2.1,5.25,23.09-14.69s-3.25-27.87-12.65-27Z" transform="translate(-163 -111.28)"/><path class="cls-3" d="M286.46,832.18s27.29-10.49,30.44,0,3.15,15.75,3.15,15.75,23.09,37.78,0,39.88-33.59-12.6-33.59-12.6,3.15-17.84,0-19.94S286.46,832.18,286.46,832.18Z" transform="translate(-163 -111.28)"/><ellipse class="cls-5" cx="142.36" cy="99.7" rx="36.73" ry="41.9"/><path class="cls-5" d="M278.07,224.54l-7.35,40.93,51.43,12.59s-12.07-29.91,1.05-43C326.52,231.72,278.07,224.54,278.07,224.54Z" transform="translate(-163 -111.28)"/><path class="cls-3" d="M275.88,250.21a6.57,6.57,0,0,0-5.14,4.77,27.54,27.54,0,0,1-4.13,8.25S218.1,285.94,218.1,289s19.61,69.15,19.61,69.15,1,41.28-7.22,50.57S214,452.1,216,455.19s-14.45,10.32-8.26,15.48,92.89,54.7,144.49,32c0,0,1-9.29,0-15.48s6.19-26.84,4.13-34.06,0-81.53,0-81.53l10.63-88a7.16,7.16,0,0,0-5-7.71c-11.9-3.62-39.48-18.42-43.28-15.25C313.8,264.77,283.08,262,275.88,250.21Z" transform="translate(-163 -111.28)"/><path class="cls-3" d="M357.43,275.62l.06,0a7.16,7.16,0,0,1,8.45,2.42c6.39,8.75,19.85,28.42,21.42,40.95,2.06,16.52,8.25,60.89,7.22,67.09s-2.06,7.22,0,10.32,1,2.06,0,5.16-13.42,88.75-13.42,88.75-8.25-18.58-23.73-12.38c0,0,2.06-16.52,0-21.68s-4.13-8.25-2.07-12.38,0-44.38-1-48.51,0-25.8,0-25.8L345,327.22Z" transform="translate(-163 -111.28)"/><path class="cls-3" d="M298.5,216.71l1.24-9.24c.28-2.15,1.46-5,3.43-4.4,1.66.5,5.3,2,5.91,1.56,2.28-1.72,5.72,1.29,8.12-.24,1-.64,1.66-2,2.83-2.11a3.13,3.13,0,0,1,2.07,1,13.87,13.87,0,0,0,5.37,3.11,5.52,5.52,0,0,0,5.65-1.64,3.28,3.28,0,0,1,1-1,2.16,2.16,0,0,1,1.44.07l6.12,1.79a26.56,26.56,0,0,0-3.14-20.7,40.59,40.59,0,0,0-8.92-9.33q-5.69-4.62-11.74-8.7c-4.42-3-9.1-5.79-14.26-6.63s-10.95.66-14.19,5a9.69,9.69,0,0,1-3.29-4.74,3.77,3.77,0,0,0-.23,5.08,3.64,3.64,0,0,0,.45.43l-5.18-3.53c-1.46,1.63,1.39,4.59.15,6.42a3.23,3.23,0,0,1-1.4,1,23.55,23.55,0,0,0-7.59,5.1c-3,3.19-4.59,7.52-6,11.77-3.09,9.46-5.33,20.31-.94,29.16.49,1,7.05,17.57,7.93,18.22,2.95,2.18,1-3.1,3.15,0,1.66,2.43,1.34-6.88,3.81-4.84a5.83,5.83,0,0,0,6.7.33c1-.76.69-5,.14-8.84a4.52,4.52,0,0,1,3.57-5.19,4.17,4.17,0,0,1,1.61.07C295.41,216.44,298.44,217.1,298.5,216.71Z" transform="translate(-163 -111.28)"/></svg>