<?xml version="1.0" encoding="utf-8"?>
<!-- Generator: Adobe Illustrator 25.0.0, SVG Export Plug-In . SVG Version: 6.00 Build 0)  -->
<svg version="1.1" id="Layer_1" xmlns="http://www.w3.org/2000/svg" xmlns:xlink="http://www.w3.org/1999/xlink" x="0px" y="0px"
	 viewBox="0 0 480 1319" style="enable-background:new 0 0 480 1319;" xml:space="preserve">
<style type="text/css">
	.st0{fill:none;stroke:#E0F6A4;stroke-width:13;stroke-linecap:round;stroke-linejoin:round;}
	.st1{fill:none;stroke:#6B8BFF;stroke-width:13;stroke-linecap:round;stroke-linejoin:round;}
	.st2{fill:none;stroke:#C9F64A;stroke-width:13;stroke-linecap:round;stroke-linejoin:round;}
	.st3{fill:none;stroke:#B8C7FF;stroke-width:13;stroke-linecap:round;stroke-linejoin:round;}
</style>
<path class="st0" d="M472.17,766.48c0,30.61-24.6,55.42-54.94,55.42s-54.94-24.81-54.94-55.42"/>
<path class="st1" d="M460.97,234.23V73.39c0-31.5-25.67-57.03-57.33-57.03S346.3,41.89,346.3,73.39v24.9"/>
<path class="st2" d="M199.21,981.91c-20.4,76.27,23.73,154.38,98.55,174.47c74.83,20.08,152.03-25.46,172.43-101.73
	c20.4-76.27-23.73-154.37-98.55-174.46"/>
<path class="st2" d="M346.29,643.21c0,32.19,25.68,58.29,57.35,58.29s57.33-26.1,57.33-58.29c0-32.19-25.67-58.29-57.33-58.29
	H211.57"/>
<path class="st2" d="M374.84,506.35c53.5,0,96.85-44.07,96.85-98.42s-43.36-98.42-96.85-98.42H121"/>
<path class="st2" d="M304.83,13.5h-128.7c-81.44,0-147.46,66.31-147.46,148.11"/>
<path class="st1" d="M334.36,965.08c30.35,0,54.94,24.42,54.94,54.54s-24.6,54.54-54.94,54.54c-30.35,0-54.95-24.42-54.95-54.54
	V664.23"/>
<path class="st1" d="M211.57,640.34v58.97c0,59.53-48.27,107.78-107.83,107.78H19.58"/>
<path class="st1" d="M389.3,410.05h-80.27c-58.05,0-105.11,47.49-105.11,106.07"/>
<path class="st3" d="M15.29,884.02c7.35,0,99.89,0,145.25,0"/>
<path class="st0" d="M127.48,372.78v136.01c0,21.4-17.48,38.73-39.05,38.73s-39.05,17.35-39.05,38.75v8.04
	c0,21.4,17.48,38.75,39.05,38.75s39.05,17.35,39.05,38.75v8.9c0,26.32-21.5,47.65-48.02,47.65H54.58H18.14"/>
<path class="st3" d="M337.7,171.08v19.38c0,27.34-22.23,49.5-49.63,49.5l0,0c-27.42,0-49.65-22.16-49.65-49.5v-16.05
	c0-27.13-22.06-49.12-49.25-49.12l0,0c-27.21,0-49.27,21.99-49.27,49.12v19.76"/>
<path class="st1" d="M8.87,1031.05c0-38.5,31.23-69.72,69.76-69.72l0,0c38.52,0,69.76,31.22,69.76,69.72v50.71
	c0,38.5-31.23,69.72-69.76,69.72l0,0c-38.53,0-69.76-31.22-69.76-69.72V1031.05z"/>
<path class="st3" d="M28.67,308.77c0,7.35,0,99.89,0,145.25"/>
<path class="st3" d="M254.28,1254.21c0-32.19-25.68-58.29-57.35-58.29s-57.33,26.1-57.33,58.29c0,32.19,25.67,58.29,57.33,58.29H472
	"/>
</svg>
