<?xml version="1.0" encoding="utf-8"?>
<!-- Generator: Adobe Illustrator 25.0.0, SVG Export Plug-In . SVG Version: 6.00 Build 0)  -->
<svg version="1.1" id="Layer_1" xmlns="http://www.w3.org/2000/svg" xmlns:xlink="http://www.w3.org/1999/xlink" x="0px" y="0px"
	 viewBox="0 0 470 1316" style="enable-background:new 0 0 470 1316;" xml:space="preserve">
<style type="text/css">
	.st0{fill:none;stroke:#6B8BFF;stroke-width:13;stroke-linecap:round;stroke-linejoin:round;}
	.st1{fill:none;stroke:#C9F64A;stroke-width:13;stroke-linecap:round;stroke-linejoin:round;}
	.st2{fill:none;stroke:#B8C7FF;stroke-width:13;stroke-linecap:round;stroke-linejoin:round;}
	.st3{fill:none;stroke:#E0F6A4;stroke-width:13;stroke-linecap:round;stroke-linejoin:round;}
</style>
<path class="st0" d="M461.9,240.49c-39.77,0-72-32.46-72-72.5c0-40.04,32.23-72.5,72-72.5"/>
<path class="st1" d="M137.14,1307.49c-74.69,0-135.24-60.21-135.24-134.5s60.55-134.5,135.24-134.5H260.9"/>
<path class="st2" d="M160.74,1228.49h-10.7c-31.56,0-57.14-25.62-57.14-57.2c0-31.6,25.58-57.22,57.14-57.22h127.58
	c46.63,0,84.43-37.84,84.43-84.53"/>
<path class="st2" d="M349.9,894.49c22.09,0,40,17.91,40,40c0,22.09-17.91,40-40,40"/>
<ellipse class="st0" cx="361.9" cy="1249.99" rx="58" ry="57.5"/>
<circle class="st3" cx="183.9" cy="152.49" r="63"/>
<path class="st0" d="M184.4,289.49c77.6,0,140.5-62.01,140.5-138.5S262,12.49,184.4,12.49S43.9,74.5,43.9,150.99"/>
<path class="st1" d="M328.4,309.49c-31.76,0-57.5,25.74-57.5,57.5s25.74,57.5,57.5,57.5s57.5-25.74,57.5-57.5v-57.5"/>
<path class="st2" d="M71.4,762.07c-36.73,0-66.5-29.46-66.5-65.79s29.77-65.79,66.5-65.79c36.73,0,66.5,29.46,66.5,65.79v201.21"/>
<path class="st0" d="M62.4,464.2c-31.76,0-57.5,25.36-57.5,56.65c0,31.29,25.74,56.65,57.5,56.65s57.5-25.36,57.5-56.65V289.49"/>
<path class="st0" d="M265.22,766.49c-32.86-0.27-59.28-27.08-59.01-59.89l1.4-169.19c0.27-32.8,27.13-59.18,59.99-58.91l0,0
	c32.86,0.27,59.28,27.08,59.01,59.89l-1.39,169.19C324.93,740.38,298.08,766.76,265.22,766.49L265.22,766.49z"/>
<path class="st1" d="M71.65,847.49h-4.81c-34.21,0-61.94,27.76-61.94,62l0,0c0,34.24,27.73,62,61.94,62h143.12
	c34.21,0,61.94-27.76,61.94-62l0,0c0-34.24-27.73-62-61.94-62h-4.81"/>
<path class="st1" d="M44.4,221.49c0,9.31,0,126.55,0,184"/>
<path class="st0" d="M298.5,837.5h26.78c55.33,0,100.18-44.8,100.18-100.06"/>
</svg>
